<?xml version="1.0" encoding="UTF-8"?><svg id="_レイヤー_2" xmlns="http://www.w3.org/2000/svg" viewBox="0 0 191.62 152.3"><g id="_レイヤー_1-2"><polygon points="20.84 20.26 20.84 40.1 56.55 40.1 56.55 113.73 76.4 113.73 76.4 40.1 150.18 40.1 150.18 62.03 99.81 62.03 99.81 113.73 119.65 113.73 119.65 81.88 170.03 81.88 170.03 20.26 20.84 20.26"/><polygon points="72.62 152.3 46.62 152.3 46.62 127.94 55.13 127.94 55.13 147.29 72.62 147.29 72.62 152.3"/><path d="M105.54,152.3h-26.06v-14.69h17.56v-4.54h-17.64v-5.01h26.14v24.24ZM87.99,147.29h9.05v-4.68h-9.05v4.68Z"/><path d="M144.21,152.3h-29.54v-24.35h8.5v9.67h21.04v14.69ZM123.17,147.29h12.53v-4.68h-12.53v4.68Z"/><polygon points="191.62 143.91 155.32 143.91 155.32 135.41 183.11 135.41 183.11 8.5 8.5 8.5 8.5 135.41 36.55 135.41 36.55 143.91 0 143.91 0 0 191.62 0 191.62 143.91"/></g></svg>